<?xml version="1.0" encoding="utf-8"?>
<svg xmlns="http://www.w3.org/2000/svg" id="Light" viewBox="0 0 636 132" version="1.1" width="712.9278" height="148">
  <defs id="defs2411">
    <style id="style2409">.cls-1{fill:#44a4e0;}</style>
    <style id="style459">.cls-1{fill:#44a4e0;}</style>
    <circle id="path-1" cx="22" cy="14" r="10"/>
  </defs>
  <path class="cls-1" d="m 219.22,47.779952 h -28.78 v 23.25 H 217 v 10.84 h -26.56 v 32.330008 h -12.8 V 36.899952 h 41.62 z" id="path2413" style="fill: rgb(255, 255, 255);"/>
  <path class="cls-1" d="m 268.09,114.17996 h -12.1 v -8.62 h -0.21 q -5.7,9.91 -16.73,9.92 -8.12,0 -12.71,-4.42 -4.59,-4.42 -4.6,-11.700008 0,-15.63 18,-18.21 l 16.34,-2.32 q 0,-11.8 -11.18,-11.8 a 26.51,26.51 0 0 0 -17.74,6.79 v -10.94 a 38.6,38.6 0 0 1 20.11,-5.18 q 20.85,0 20.86,20.59 z m -12.05,-27.150008 -11.6,1.66 q -5.37,0.7 -8.09,2.61 -2.72,1.91 -2.67,6.73 a 7.36,7.36 0 0 0 2.5,5.740008 9.66,9.66 0 0 0 6.69,2.23 12.36,12.36 0 0 0 9.44,-4 14.27,14.27 0 0 0 3.73,-10.110008 z" id="path2415" style="fill: rgb(255, 255, 255);"/>
  <path class="cls-1" d="m 330.77,114.17996 h -15.81 l -21.4,-26.510008 h -0.22 V 114.17996 H 280.82 V 32.479952 h 12.52 v 51.79 h 0.22 l 20.22,-25.24 h 15 l -22.75,26.62 z" id="path2417" style="fill: rgb(255, 255, 255);"/>
  <path class="cls-1" d="m 380.54,90.029952 h -37.53 c 0.15,5.1 1.71,9 4.71,11.800008 3,2.8 7.1,4.15 12.34,4.15 a 27.18,27.18 0 0 0 16.18,-5.28 v 10.08 q -7.53,4.74 -19.89,4.74 -12.15,0 -19.06,-7.52 -6.91,-7.52 -6.91,-21.150008 0,-12.89 7.61,-21 a 24.87,24.87 0 0 1 18.89,-8.11 q 11.3,0 17.48,7.28 6.18,7.28 6.18,20.21 z m -12,-8.84 q -0.06,-6.75 -3.17,-10.49 a 10.62,10.62 0 0 0 -8.61,-3.74 12.1,12.1 0 0 0 -9.11,3.93 18.08,18.08 0 0 0 -4.6,10.3 z" id="path2419" style="fill: rgb(255, 255, 255);"/>
  <path class="cls-1" d="M 446.297 48.193 L 417.477 48.193 L 417.477 71.443 L 444.027 71.443 L 444.027 82.283 L 417.477 82.283 L 417.477 114.613 L 404.687 114.613 L 404.687 37.313 L 446.297 37.313 L 446.297 48.193 Z" id="path2421" style="fill: rgb(255, 255, 255);"/>
  <path class="cls-1" d="M 461.797 47.823 C 459.857 47.86 457.978 47.143 456.557 45.823 C 455.12 44.54 454.323 42.688 454.377 40.763 C 454.327 38.821 455.122 36.953 456.557 35.643 C 457.963 34.293 459.847 33.555 461.797 33.593 C 463.789 33.545 465.721 34.281 467.177 35.643 C 468.621 36.948 469.424 38.817 469.377 40.763 C 469.402 42.67 468.6 44.494 467.177 45.763 C 465.726 47.134 463.792 47.874 461.797 47.823 Z M 468.027 114.593 L 455.507 114.593 L 455.507 59.443 L 468.027 59.443 L 468.027 114.593 Z" id="path2423" style="fill: rgb(255, 255, 255);"/>
  <path class="cls-1" d="M 493.907 114.593 L 481.377 114.593 L 481.377 32.893 L 493.907 32.893 L 493.907 114.593 Z" id="path2425" style="fill: rgb(255, 255, 255);"/>
  <path class="cls-1" d="M 519.687 114.593 L 507.157 114.593 L 507.157 32.893 L 519.687 32.893 L 519.687 114.593 Z" id="path2427" style="fill: rgb(255, 255, 255);"/>
  <path class="cls-1" d="M 580.277 90.443 L 542.747 90.443 C 542.887 95.543 544.453 99.476 547.447 102.243 C 550.44 105.01 554.553 106.393 559.787 106.393 C 565.606 106.412 571.278 104.561 575.967 101.113 L 575.967 111.193 C 570.947 114.353 564.317 115.933 556.077 115.933 C 547.977 115.933 541.623 113.426 537.017 108.413 C 532.41 103.4 530.107 96.35 530.107 87.263 C 530.107 78.67 532.643 71.67 537.717 66.263 C 542.552 60.96 549.442 58.004 556.617 58.153 C 564.137 58.153 569.96 60.58 574.087 65.433 C 578.213 70.286 580.277 77.023 580.277 85.643 L 580.277 90.443 Z M 568.277 81.603 C 568.277 77.103 567.22 73.606 565.107 71.113 C 562.976 68.598 559.798 67.216 556.507 67.373 C 553.044 67.318 549.724 68.748 547.387 71.303 C 544.793 74.156 543.184 77.767 542.797 81.603 L 568.277 81.603 Z" id="path2429" style="fill: rgb(255, 255, 255);"/>
  <path class="cls-1" d="M 622.187 71.323 C 620.687 70.136 618.52 69.543 615.687 69.543 C 611.987 69.543 608.903 71.21 606.437 74.543 C 603.97 77.876 602.733 82.423 602.727 88.183 L 602.727 114.583 L 590.247 114.583 L 590.247 59.443 L 602.727 59.443 L 602.727 70.783 L 602.937 70.783 C 603.914 67.286 605.862 64.137 608.557 61.703 C 610.879 59.606 613.897 58.445 617.027 58.443 C 618.803 58.333 620.579 58.678 622.187 59.443 L 622.187 71.323 Z" id="path2431" style="fill: rgb(255, 255, 255);"/>
  <desc>Created with Sketch.</desc>
  <g id="Page-1" stroke="none" stroke-width="1" fill="none" fill-rule="evenodd" transform="matrix(4.67157, 0, 0, 4.73625, 7.39551, 11.7317)" style="">
    <g id="Sprint-Board" transform="translate(-30.000000, -24.000000)">
      <g id="Logo" transform="translate(30.000000, 22.000000)">
        <circle id="Oval-5" stroke="#DB1C3D" stroke-width="3" cx="10" cy="14" r="8.5"/>
        <g id="Oval-5">
          <circle stroke="#4A90E2" stroke-width="3" cx="22" cy="14" r="8.5"/>
          <circle stroke="#0E1F44" stroke-width="2" cx="22" cy="14" r="11"/>
        </g>
      </g>
    </g>
  </g>
</svg>